<svg width="140" height="24" viewBox="0 0 140 24" fill="none" xmlns="http://www.w3.org/2000/svg">
<path d="M0.109375 23.4725V0.916992H9.22675C10.6261 0.916992 11.8723 1.19625 12.9655 1.75477C14.0806 2.29181 14.9442 3.06514 15.5564 4.07477C16.1905 5.06292 16.5075 6.25514 16.5075 7.65144V8.07033C16.5075 9.46662 16.1796 10.6696 15.5236 11.6792C14.8896 12.6888 14.0259 13.4622 12.9327 13.9992C11.8395 14.5363 10.6042 14.8048 9.22675 14.8048H3.65138V23.4725H0.109375ZM3.65138 11.647H8.86599C10.1123 11.647 11.1071 11.3248 11.8505 10.6803C12.5938 10.0359 12.9655 9.15514 12.9655 8.0381V7.71588C12.9655 6.57736 12.5938 5.68588 11.8505 5.04144C11.1071 4.39699 10.1123 4.07477 8.86599 4.07477H3.65138V11.647Z" fill="white"/>
<path d="M27.0964 23.9237C25.4784 23.9237 24.0354 23.6014 22.7673 22.957C21.521 22.2911 20.5371 21.3459 19.8156 20.1214C19.0941 18.897 18.7333 17.447 18.7333 15.7714V15.2881C18.7333 13.6125 19.0941 12.1733 19.8156 10.9703C20.5371 9.74588 21.521 8.8007 22.7673 8.13477C24.0354 7.46884 25.4784 7.13588 27.0964 7.13588C28.7143 7.13588 30.1574 7.46884 31.4255 8.13477C32.6936 8.8007 33.6885 9.74588 34.41 10.9703C35.1315 12.1733 35.4923 13.6125 35.4923 15.2881V15.7714C35.4923 17.447 35.1315 18.897 34.41 20.1214C33.6885 21.3459 32.6936 22.2911 31.4255 22.957C30.1574 23.6014 28.7143 23.9237 27.0964 23.9237ZM27.0964 20.9592C28.5832 20.9592 29.7857 20.4974 30.704 19.5737C31.6441 18.6285 32.1142 17.3288 32.1142 15.6748V15.3848C32.1142 13.7307 31.6551 12.4418 30.7368 11.5181C29.8185 10.5729 28.605 10.1003 27.0964 10.1003C25.6315 10.1003 24.429 10.5729 23.4888 11.5181C22.5705 12.4418 22.1114 13.7307 22.1114 15.3848V15.6748C22.1114 17.3288 22.5705 18.6285 23.4888 19.5737C24.429 20.4974 25.6315 20.9592 27.0964 20.9592Z" fill="white"/>
<path d="M46.3227 23.9237C44.2675 23.9237 42.5621 23.4726 41.2065 22.5703C39.8509 21.6681 39.0201 20.304 38.714 18.4781L41.8624 17.737C42.0373 18.6177 42.3325 19.3159 42.7479 19.8314C43.1633 20.347 43.6772 20.7122 44.2894 20.927C44.9234 21.1418 45.6012 21.2492 46.3227 21.2492C47.3941 21.2492 48.214 21.0451 48.7825 20.637C49.3728 20.2288 49.668 19.7026 49.668 19.0581C49.668 18.4137 49.3946 17.9411 48.848 17.6403C48.3014 17.3396 47.4925 17.0926 46.4211 16.8992L45.306 16.7059C44.2128 16.5126 43.218 16.2333 42.3216 15.8681C41.4251 15.5029 40.7146 14.9981 40.1898 14.3537C39.6651 13.7092 39.4027 12.8822 39.4027 11.8725C39.4027 10.3688 39.9712 9.20885 41.1081 8.39255C42.245 7.55477 43.7537 7.13588 45.634 7.13588C47.4487 7.13588 48.9355 7.54403 50.0943 8.36033C51.275 9.15514 52.0402 10.24 52.3901 11.6148L49.2416 12.4848C49.0448 11.5181 48.6294 10.8414 47.9953 10.4548C47.3613 10.0466 46.5742 9.84255 45.634 9.84255C44.7157 9.84255 43.9942 10.0144 43.4694 10.3581C42.9447 10.6803 42.6823 11.1422 42.6823 11.7437C42.6823 12.3881 42.9338 12.8607 43.4367 13.1614C43.9614 13.4622 44.661 13.6877 45.5356 13.8381L46.6835 14.0314C47.8423 14.2248 48.9027 14.4933 49.8647 14.837C50.8268 15.1807 51.5811 15.6748 52.1277 16.3192C52.6961 16.9637 52.9804 17.8229 52.9804 18.897C52.9804 20.4866 52.3791 21.7218 51.1766 22.6025C49.9741 23.4833 48.3561 23.9237 46.3227 23.9237Z" fill="white"/>
<path d="M56.9288 23.4725V7.58699H60.3068V23.4725H56.9288ZM58.6342 5.42811C57.9782 5.42811 57.4207 5.22403 56.9616 4.81588C56.5243 4.38625 56.3056 3.83847 56.3056 3.17255C56.3056 2.50662 56.5243 1.96959 56.9616 1.56144C57.4207 1.13181 57.9782 0.916992 58.6342 0.916992C59.312 0.916992 59.8695 1.13181 60.3068 1.56144C60.7441 1.96959 60.9627 2.50662 60.9627 3.17255C60.9627 3.83847 60.7441 4.38625 60.3068 4.81588C59.8695 5.22403 59.312 5.42811 58.6342 5.42811Z" fill="white"/>
<path d="M71.3873 23.4725C70.4034 23.4725 69.6163 23.1825 69.026 22.6025C68.4575 22.0225 68.1733 21.2492 68.1733 20.2826V10.3903H63.713V7.58699H68.1733V2.33477H71.5513V7.58699H76.3724V10.3903H71.5513V19.7025C71.5513 20.347 71.8574 20.6692 72.4696 20.6692H75.8476V23.4725H71.3873Z" fill="white"/>
<path d="M80.341 23.4725V7.58699H83.719V23.4725H80.341ZM82.0464 5.42811C81.3905 5.42811 80.8329 5.22403 80.3738 4.81588C79.9365 4.38625 79.7178 3.83847 79.7178 3.17255C79.7178 2.50662 79.9365 1.96959 80.3738 1.56144C80.8329 1.13181 81.3905 0.916992 82.0464 0.916992C82.7242 0.916992 83.2817 1.13181 83.719 1.56144C84.1563 1.96959 84.3749 2.50662 84.3749 3.17255C84.3749 3.83847 84.1563 4.38625 83.719 4.81588C83.2817 5.22403 82.7242 5.42811 82.0464 5.42811Z" fill="white"/>
<path d="M92.471 23.4725L87.0268 7.58699H90.6016L94.8979 21.0237H95.4227L99.719 7.58699H103.294L97.8496 23.4725H92.471Z" fill="white"/>
<path d="M112.77 23.7626C111.546 23.7626 110.453 23.494 109.491 22.957C108.528 22.42 107.774 21.6574 107.228 20.6692C106.681 19.6811 106.408 18.4996 106.408 17.1248V7.58699H109.786V16.8992C109.786 18.274 110.136 19.2944 110.835 19.9603C111.535 20.6048 112.508 20.927 113.754 20.927C115.131 20.927 116.236 20.4759 117.066 19.5737C117.919 18.65 118.346 17.3288 118.346 15.6103V7.58699H121.724V23.4725H118.411V21.0881H117.886C117.58 21.7326 117.034 22.3448 116.247 22.9248C115.459 23.4833 114.301 23.7626 112.77 23.7626Z" fill="white"/>
<path d="M133.342 23.9237C131.287 23.9237 129.581 23.4726 128.226 22.5703C126.87 21.6681 126.039 20.304 125.733 18.4781L128.882 17.737C129.056 18.6177 129.352 19.3159 129.767 19.8314C130.183 20.347 130.696 20.7122 131.309 20.927C131.943 21.1418 132.62 21.2492 133.342 21.2492C134.413 21.2492 135.233 21.0451 135.802 20.637C136.392 20.2288 136.687 19.7026 136.687 19.0581C136.687 18.4137 136.414 17.9411 135.867 17.6403C135.321 17.3396 134.512 17.0926 133.44 16.8992L132.325 16.7059C131.232 16.5126 130.237 16.2333 129.341 15.8681C128.444 15.5029 127.734 14.9981 127.209 14.3537C126.684 13.7092 126.422 12.8822 126.422 11.8725C126.422 10.3688 126.99 9.20885 128.127 8.39255C129.264 7.55477 130.773 7.13588 132.653 7.13588C134.468 7.13588 135.955 7.54403 137.113 8.36033C138.294 9.15514 139.059 10.24 139.409 11.6148L136.261 12.4848C136.064 11.5181 135.649 10.8414 135.014 10.4548C134.38 10.0466 133.593 9.84255 132.653 9.84255C131.735 9.84255 131.013 10.0144 130.489 10.3581C129.964 10.6803 129.702 11.1422 129.702 11.7437C129.702 12.3881 129.953 12.8607 130.456 13.1614C130.981 13.4622 131.68 13.6877 132.555 13.8381L133.703 14.0314C134.861 14.2248 135.922 14.4933 136.884 14.837C137.846 15.1807 138.6 15.6748 139.147 16.3192C139.715 16.9637 140 17.8229 140 18.897C140 20.4866 139.398 21.7218 138.196 22.6025C136.993 23.4833 135.375 23.9237 133.342 23.9237Z" fill="white"/>
</svg>
